<svg width="23" height="23" viewBox="0 0 23 23" fill="none" xmlns="http://www.w3.org/2000/svg">
<path id="Vector" d="M11.165 0.5C5.09104 0.5 0.165039 5.425 0.165039 11.5C0.165039 17.575 5.09004 22.5 11.165 22.5C17.24 22.5 22.165 17.575 22.165 11.5C22.165 5.425 17.24 0.5 11.165 0.5ZM11.165 3.79C11.65 3.77863 12.1323 3.86432 12.5836 4.04204C13.0349 4.21975 13.4462 4.48591 13.7932 4.82485C14.1402 5.1638 14.4159 5.56869 14.6041 6.01573C14.7924 6.46278 14.8893 6.94294 14.8893 7.428C14.8893 7.91306 14.7924 8.39322 14.6041 8.84027C14.4159 9.28731 14.1402 9.6922 13.7932 10.0311C13.4462 10.3701 13.0349 10.6362 12.5836 10.814C12.1323 10.9917 11.65 11.0774 11.165 11.066C10.2105 11.0502 9.3004 10.6599 8.63096 9.97925C7.96152 9.29862 7.58636 8.38217 7.58636 7.4275C7.58636 6.47282 7.96152 5.55638 8.63096 4.87575C9.3004 4.19513 10.2105 3.80583 11.165 3.79ZM11.163 19.624C9.15804 19.624 7.32204 18.894 5.90604 17.685C5.73563 17.5396 5.59875 17.359 5.50484 17.1557C5.41093 16.9523 5.36221 16.731 5.36204 16.507C5.36217 16.0237 5.45775 15.5452 5.64331 15.0989C5.82886 14.6527 6.10073 14.2474 6.44332 13.9065C6.7859 13.5656 7.19244 13.2957 7.6396 13.1124C8.08676 12.929 8.56574 12.8358 9.04904 12.838H13.282C13.7651 12.8356 14.2439 12.9288 14.6909 13.1122C15.1378 13.2956 15.5441 13.5655 15.8863 13.9065C16.2285 14.2475 16.4999 14.6528 16.6849 15.0991C16.8698 15.5454 16.9647 16.0239 16.964 16.507C16.964 16.96 16.766 17.391 16.42 17.685C14.9555 18.9385 13.0907 19.6263 11.163 19.624Z" fill="#8D94AD"/>
</svg>
